HIERARCHY
ROOT Hips
{
	OFFSET	0.000000	0.000000	0.000000
	CHANNELS 6 Xposition Yposition Zposition Zrotation Xrotation Yrotation
	JOINT LeftUpLeg
	{
		OFFSET	12.811937	-7.635976	0.557276
		CHANNELS 3 Zrotation Xrotation Yrotation
		JOINT LeftLeg
		{
			OFFSET	-0.429270	-42.206159	-1.204951
			CHANNELS 3 Zrotation Xrotation Yrotation
			JOINT LeftFoot
			{
				OFFSET	-2.112259	-42.464481	-3.973220
				CHANNELS 3 Zrotation Xrotation Yrotation
				JOINT LeftFootHeel
				{
					OFFSET	0.387196	-5.329707	-3.419729
					CHANNELS 3 Zrotation Xrotation Yrotation
					End Site
					{
						OFFSET	0.327567	-0.000003	16.505428
					}
				}
			}
		}
	}
	JOINT RightUpLeg
	{
		OFFSET	-12.811937	-7.635976	0.557276
		CHANNELS 3 Zrotation Xrotation Yrotation
		JOINT RightLeg
		{
			OFFSET	0.429270	-42.206159	-1.204951
			CHANNELS 3 Zrotation Xrotation Yrotation
			JOINT RightFoot
			{
				OFFSET	2.112259	-42.464481	-3.973220
				CHANNELS 3 Zrotation Xrotation Yrotation
				JOINT RightFootHeel
				{
					OFFSET	-0.387198	-5.329707	-3.419729
					CHANNELS 3 Zrotation Xrotation Yrotation
					End Site
					{
						OFFSET	-0.327566	-0.000003	16.505428
					}
				}
			}
		}
	}
	JOINT Spine
	{
		OFFSET	0.000000	13.731315	-1.007646
		CHANNELS 3 Zrotation Xrotation Yrotation
		JOINT Spine1
		{
			OFFSET	0.000000	12.091746	-0.604589
			CHANNELS 3 Zrotation Xrotation Yrotation
			JOINT LeftShoulder
			{
				OFFSET	5.746115	20.990027	-0.833816
				CHANNELS 3 Zrotation Xrotation Yrotation
				JOINT LeftArm
				{
					OFFSET	10.881538	-1.359258	0.219250
					CHANNELS 3 Zrotation Xrotation Yrotation
					JOINT LeftForeArm
					{
						OFFSET	4.390314	-31.537147	0.202818
						CHANNELS 3 Zrotation Xrotation Yrotation
						JOINT LeftHand
						{
							OFFSET	3.168650	-24.865023	5.373370
							CHANNELS 3 Zrotation Xrotation Yrotation
							End Site
							{
								OFFSET	1.457528	-10.806075	2.170267
							}
						}
					}
				}
			}
			JOINT RightShoulder
			{
				OFFSET	-5.746115	20.990027	-0.833816
				CHANNELS 3 Zrotation Xrotation Yrotation
				JOINT RightArm
				{
					OFFSET	-10.881538	-1.359258	0.219250
					CHANNELS 3 Zrotation Xrotation Yrotation
					JOINT RightForeArm
					{
						OFFSET	-4.390314	-31.537147	0.202818
						CHANNELS 3 Zrotation Xrotation Yrotation
						JOINT RightHand
						{
							OFFSET	-3.168650	-24.865023	5.373370
							CHANNELS 3 Zrotation Xrotation Yrotation
							End Site
							{
								OFFSET	-1.457528	-10.806075	2.170267
							}
						}
					}
				}
			}
			JOINT Neck
			{
				OFFSET	0.000000	27.075639	0.680489
				CHANNELS 3 Zrotation Xrotation Yrotation
				JOINT Head
				{
					OFFSET	0.000000	12.391287	1.239129
					CHANNELS 3 Zrotation Xrotation Yrotation
					End Site
					{
						OFFSET	0.000000	13.818691	-0.105853
					}
				}
			}
		}
	}
}
MOTION
Frames:    13
Frame Time: 0.016667
0.000000	100.164078	0.000000	0.249838	1.759491	0.513283	-0.225344	1.621962	0.151883	1.075516	-0.519809	0.933778	-1.012652	-1.832774	-5.781343	0.	0.	0.	-0.702658	-0.839414	-2.714822	0.508295	0.987187	2.909698	-0.816275	-1.597868	-2.591102	0.	0.	0.	-0.614801	2.736663	0.895528	1.457965	0.545355	-2.366606	-0.261801	-1.911731	1.954324	0.661655	-2.290456	-5.212286	-0.857716	-1.951233	-1.998703	0.272840	0.567964	-11.515512	-1.098797	-1.589360	4.689919	0.586984	-2.921217	1.770859	1.655502	0.230133	5.352317	-2.401341	-2.028448	26.411484	-2.186535	-1.661568	4.321588	0.694197	-2.244342	-1.757685	
0.000000	100.164078	0.000000	0.249838	1.759491	0.513283	-0.225344	1.621962	0.151883	1.075516	-0.519809	0.933778	-1.012652	-1.832774	-5.781343	0.	0.	0.	-0.702658	-0.839414	-2.714822	0.508295	0.987187	2.909698	-0.816275	-1.597868	-2.591102	0.	0.	0.	-0.614801	2.736663	0.895528	1.458998	0.565894	-2.365303	-0.262031	-1.932290	1.952915	0.661784	-2.290576	-5.215886	-0.854996	-1.950892	-2.001215	0.270056	0.567609	-11.509295	-1.097969	-1.598796	4.696248	0.588456	-2.913965	1.759913	1.651809	0.211777	5.353020	-2.389306	-2.023352	26.416117	-2.198706	-1.667060	4.327663	0.703282	-2.238351	-1.762338	
0.000000	100.164078	0.000000	0.249838	1.759491	0.513283	-0.225344	1.621962	0.151883	1.075516	-0.519809	0.933778	-1.012652	-1.832774	-5.781343	0.	0.	0.	-0.702658	-0.839414	-2.714822	0.508295	0.987187	2.909698	-0.816275	-1.597868	-2.591102	0.	0.	0.	-0.614801	2.736663	0.895528	1.460066	0.587376	-2.363947	-0.262263	-1.953790	1.951450	0.661784	-2.290576	-5.215886	-0.854996	-1.950892	-2.001216	0.270056	0.567609	-11.509296	-1.097123	-1.609002	4.702642	0.589838	-2.907124	1.748876	1.647466	0.193932	5.356728	-2.381166	-2.008210	26.414499	-2.219160	-1.663197	4.340331	0.719622	-2.243882	-1.773869	
0.000000	100.164078	0.000000	0.249838	1.759491	0.513283	-0.225344	1.621962	0.151883	1.075516	-0.519809	0.933778	-1.012652	-1.832774	-5.781343	0.	0.	0.	-0.702658	-0.839414	-2.714822	0.508295	0.987187	2.909698	-0.816275	-1.597868	-2.591102	0.	0.	0.	-0.614801	2.736663	0.895528	1.460066	0.587376	-2.363947	-0.262263	-1.953790	1.951450	0.662058	-2.290844	-5.223628	-0.855028	-1.950766	-1.993456	0.270056	0.567609	-11.509296	-1.097123	-1.609002	4.702642	0.589838	-2.907124	1.748876	1.647466	0.193932	5.356728	-2.381166	-2.008210	26.414499	-2.219160	-1.663197	4.340331	0.719622	-2.243882	-1.773869	
-0.000306	100.164815	0.003688	0.252340	1.782701	0.510648	-0.228121	1.598764	0.154351	1.075516	-0.519809	0.933778	-1.012652	-1.832774	-5.781343	0.	0.	0.	-0.705332	-0.862631	-2.712548	0.508295	0.987187	2.909698	-0.816275	-1.597868	-2.591102	0.	0.	0.	-0.617619	2.713449	0.897840	1.462275	0.631596	-2.361166	-0.262750	-1.998052	1.948442	0.663502	-2.292291	-5.265026	-0.844170	-1.948930	-1.976587	0.244021	0.551592	-11.455159	-1.095327	-1.629174	4.716415	0.591785	-2.897437	1.726161	1.639374	0.160706	5.363624	-2.383748	-1.978224	26.407391	-2.236675	-1.685974	4.347466	0.731794	-2.222875	-1.778422	
-0.000400	100.165009	0.004796	0.253090	1.789658	0.509860	-0.228953	1.591814	0.155088	1.075516	-0.519809	0.933778	-1.012652	-1.832775	-5.781343	0.	0.	0.	-0.706133	-0.869588	-2.711869	0.508295	0.987187	2.909698	-0.816275	-1.597868	-2.591102	0.	0.	0.	-0.618463	2.706494	0.898530	1.462812	0.642463	-2.360479	-0.262865	-2.008929	1.947698	0.663627	-2.292416	-5.268621	-0.840671	-1.948508	-1.980830	0.236894	0.547625	-11.440184	-1.094827	-1.633616	4.720171	0.592065	-2.895957	1.720264	1.637483	0.152923	5.365245	-2.384742	-1.973999	26.410217	-2.236797	-1.696819	4.346350	0.731094	-2.211661	-1.776545	
-0.000571	100.165416	0.006876	0.254502	1.802756	0.508378	-0.230520	1.578723	0.156473	1.075516	-0.519809	0.933778	-1.012652	-1.832774	-5.781343	0.	0.	0.	-0.707642	-0.882690	-2.710593	0.508295	0.987187	2.909698	-0.816275	-1.597868	-2.591101	0.	0.	0.	-0.620052	2.693394	0.899827	1.463786	0.661913	-2.359267	-0.260079	-2.022323	1.953398	0.660145	-2.298465	-5.275466	-0.834200	-1.947831	-1.995293	0.220252	0.536814	-11.405641	-1.093781	-1.639709	4.728251	0.591109	-2.891684	1.717474	1.635086	0.135228	5.359118	-2.388079	-1.970187	26.427702	-2.240618	-1.711723	4.346833	0.732714	-2.191965	-1.774951	
-0.000614	100.165512	0.007368	0.254843	1.805857	0.508034	-0.230897	1.575623	0.156793	1.075516	-0.519809	0.933778	-1.012652	-1.832774	-5.781343	0.	0.	0.	-0.708005	-0.885792	-2.710299	0.508295	0.987187	2.909698	-0.816275	-1.597867	-2.591102	0.	0.	0.	-0.620434	2.690292	0.900127	1.464635	0.678936	-2.358175	-0.256044	-2.030814	1.962084	0.655248	-2.306975	-5.285093	-0.832775	-1.947684	-1.998479	0.214298	0.532162	-11.393509	-1.092647	-1.642792	4.736925	0.589526	-2.887717	1.717239	1.630625	0.118188	5.361022	-2.390439	-1.965938	26.439856	-2.244404	-1.724205	4.347528	0.734312	-2.172194	-1.773332	
-0.000614	100.165512	0.007368	0.254843	1.805857	0.508034	-0.230897	1.575623	0.156793	1.075516	-0.519809	0.933778	-1.012652	-1.832774	-5.781343	0.	0.	0.	-0.708005	-0.885792	-2.710299	0.508295	0.987187	2.909698	-0.816275	-1.597867	-2.591102	0.	0.	0.	-0.620434	2.690292	0.900127	1.465901	0.704340	-2.356582	-0.249585	-2.042595	1.976112	0.647425	-2.320552	-5.300463	-0.832775	-1.947683	-1.998479	0.214298	0.532163	-11.393510	-1.090959	-1.647401	4.749899	0.586976	-2.882715	1.717038	1.622410	0.094392	5.371286	-2.360497	-1.955538	26.458973	-2.248147	-1.745217	4.347289	0.734813	-2.136425	-1.768968	
-0.000614	100.165512	0.007368	0.254843	1.805857	0.508034	-0.230897	1.575623	0.156793	1.075516	-0.519809	0.933778	-1.012652	-1.832774	-5.781343	0.	0.	0.	-0.708005	-0.885792	-2.710299	0.508295	0.987187	2.909698	-0.816275	-1.597867	-2.591102	0.	0.	0.	-0.620434	2.690292	0.900127	1.466778	0.721929	-2.355480	-0.245104	-2.050725	1.985871	0.641991	-2.329983	-5.311149	-0.832775	-1.947683	-1.998479	0.214298	0.532163	-11.393510	-1.089910	-1.651804	4.758008	0.585135	-2.879459	1.718174	1.617266	0.079222	5.377173	-2.333750	-1.947494	26.474058	-2.264667	-1.742228	4.356705	0.747150	-2.126749	-1.775110	
-0.000614	100.165512	0.007368	0.254843	1.805857	0.508034	-0.230897	1.575623	0.156793	1.075516	-0.519809	0.933778	-1.012652	-1.832774	-5.781343	0.	0.	0.	-0.708005	-0.885792	-2.710299	0.508295	0.987187	2.909698	-0.816275	-1.597867	-2.591102	0.	0.	0.	-0.620434	2.690292	0.900127	1.467205	0.730558	-2.354932	-0.242829	-2.054574	1.990816	0.639243	-2.334749	-5.316552	-0.832775	-1.947684	-1.998479	0.214298	0.532162	-11.393508	-1.089392	-1.653936	4.761997	0.584226	-2.877834	1.718759	1.614865	0.071678	5.379486	-2.320971	-1.943544	26.481968	-2.272974	-1.740500	4.361454	0.753302	-2.120834	-1.778015	
-0.000614	100.165512	0.007368	0.254843	1.805857	0.508034	-0.230897	1.575623	0.156793	1.075516	-0.519809	0.933778	-1.012652	-1.832774	-5.781343	0.	0.	0.	-0.708005	-0.885792	-2.710299	0.508295	0.987187	2.909698	-0.816275	-1.597867	-2.591102	0.	0.	0.	-0.620434	2.690292	0.900127	1.467992	0.746363	-2.353940	-0.238148	-2.060551	2.001109	0.633598	-2.344540	-5.327638	-0.832775	-1.947685	-1.998480	0.214298	0.532162	-11.393510	-1.088349	-1.656820	4.770051	0.583814	-2.876753	1.710450	1.611308	0.058110	5.382578	-2.306930	-1.936182	26.506401	-2.285470	-1.740808	4.368285	0.761894	-2.101471	-1.780601	
-0.000614	100.165512	0.007368	0.254843	1.805857	0.508034	-0.230897	1.575623	0.156793	1.075516	-0.519809	0.933778	-1.012652	-1.832774	-5.781343	0.	0.	0.	-0.708005	-0.885792	-2.710299	0.508295	0.987187	2.909698	-0.816275	-1.597867	-2.591102	0.	0.	0.	-0.620434	2.690292	0.900127	1.468849	0.763610	-2.352844	-0.230822	-2.062567	2.017552	0.624848	-2.359704	-5.344840	-0.832775	-1.947685	-1.998481	0.214298	0.532162	-11.393511	-1.086779	-1.655333	4.782195	0.583227	-2.879255	1.694427	1.607435	0.042152	5.385867	-2.312421	-1.929980	26.534958	-2.303262	-1.735936	4.378589	0.774237	-2.074616	-1.784442	
